<?xml version="1.0" encoding="utf-8"?>
<!-- Generator: Adobe Illustrator 16.0.0, SVG Export Plug-In . SVG Version: 6.00 Build 0)  -->
<!DOCTYPE svg PUBLIC "-//W3C//DTD SVG 1.1//EN" "http://www.w3.org/Graphics/SVG/1.1/DTD/svg11.dtd">
<svg version="1.1" id="Layer_1" xmlns="http://www.w3.org/2000/svg" xmlns:xlink="http://www.w3.org/1999/xlink" x="0px" y="0px"
	 width="403.774px" height="120px" viewBox="0 0 403.774 120" enable-background="new 0 0 403.774 120" xml:space="preserve">
<path d="M399.284,101.072c0,7.828-6.346,14.174-14.173,14.174H19.472c-7.828,0-14.174-6.346-14.174-14.174V18.928
	c0-7.828,6.346-14.174,14.174-14.174h365.64c7.827,0,14.173,6.346,14.173,14.174V101.072z"/>
<g>
	<path fill-rule="evenodd" clip-rule="evenodd" fill="#FFFFFF" d="M220.519,96.473c-1.453-1.286-2.691-3.277-3.416-4.672l4.961-2.11
		c0.32,0.605,0.779,1.542,1.518,2.339c1.271,1.378,2.977,2.326,5.041,2.326c1.928,0,4.105-0.884,5.248-2.471
		c1.023-1.422,1.422-3.231,1.422-5.172v-1.938c-3.541,4.557-11.287,3.921-15.619-0.793c-4.631-5.035-4.59-13.209,0.094-18.244
		c4.623-4.578,11.48-5.156,15.516-0.82c0.002,0.002,0.008,0.007,0.01,0.01v-2.192h5.373v23.366c0,5.944-2.182,9.305-4.891,11.261
		c-1.984,1.435-4.764,2.088-7.215,2.088C225.376,99.449,222.646,98.354,220.519,96.473z M349.356,97.761l5.189-12.295l-9.188-21.316
		h5.232l6.545,15.183l6.406-15.183h5.234l-14.186,33.611H349.356z M324.513,86.02c-1.479-1.425-2.285-3.657-2.305-5.709
		c-0.021-1.788,0.59-3.613,1.902-5.016c2.107-2.255,5.279-3.218,8.602-3.218c2.176,0,4.1,0.436,5.553,1.272
		c0-3.759-2.938-5.195-5.428-5.195c-2.299,0-4.324,1.216-5.104,3.314l-4.699-1.903c0.838-2.271,3.469-6.15,9.689-6.15
		c3.031,0,6.039,1.071,8,3.155c1.959,2.082,2.613,4.68,2.613,8.13v12.908h-5.127v-2.306c-0.684,0.844-1.711,1.685-2.811,2.226
		c-1.314,0.647-2.865,0.87-4.291,0.87C328.769,88.398,326.196,87.639,324.513,86.02z M160.507,74.921
		c0-6.152,4.68-12.936,12.807-12.936c8.125,0,12.805,6.778,12.805,12.931c0,6.151-4.68,12.933-12.805,12.933
		C165.187,87.849,160.507,81.071,160.507,74.921z M188.304,74.921c0-6.152,4.678-12.936,12.805-12.936
		c8.123,0,12.805,6.778,12.805,12.931c0,6.151-4.682,12.933-12.805,12.933C192.981,87.849,188.304,81.071,188.304,74.921z
		 M125.821,81.717c-7.75-7.81-7.521-20.357,0.229-28.168c3.916-3.917,9.006-5.879,14.141-5.855
		c4.893,0.023,9.783,1.849,13.607,5.436l-3.836,4.006c-5.561-5.399-14.393-5.327-19.83,0.27c-5.5,5.701-5.629,14.857-0.131,20.559
		c5.539,5.699,14.723,6.032,20.26,0.334c1.875-1.927,2.51-4.388,2.891-6.901h-12.99v-5.492h18.248
		c0.262,1.372,0.303,2.786,0.303,4.183c0,4.52-1.955,9.309-4.975,12.401c-3.453,3.536-8.271,5.366-13.365,5.322
		C135.093,87.764,129.794,85.692,125.821,81.717z M255.827,84.021c-4.561-5.035-4.561-13.288,0-18.323
		c4.562-5.035,12.352-5.007,16.773-0.03c1.455,1.635,2.432,3.748,3.291,5.941l-17.074,7.19c0.998,2.011,2.963,3.938,6.072,3.938
		c2.66,0,4.469-0.892,6.379-3.598l4.465,3.005h0.002c-0.514,0.677-1.148,1.35-1.625,1.876
		C269.55,89.057,260.39,89.057,255.827,84.021z M287.901,87.633V53.596h10.953c6.6,0,11.582,4.618,11.582,10.307
		c0,5.69-4.736,10.309-10.572,10.309h-6.771v13.422H287.901z M313.833,87.633V53.592h5.189v34.041H313.833z M244.321,87.079V48.986
		h5.684v38.093H244.321z M338.229,77.649c-1.271-0.864-3.209-1.247-4.893-1.247c-3.693,0-5.777,1.867-5.777,3.908
		c0,2.28,2.178,3.406,4.219,3.406C334.741,83.717,338.229,81.249,338.229,77.649z M180.458,74.916c0-3.711-2.609-7.798-7.145-7.798
		s-7.146,4.091-7.146,7.801c0,3.712,2.611,7.8,7.146,7.8S180.458,78.627,180.458,74.916z M208.255,74.916
		c0-3.711-2.611-7.798-7.146-7.798s-7.146,4.091-7.146,7.801c0,3.712,2.611,7.8,7.146,7.8S208.255,78.627,208.255,74.916z
		 M235.419,77.268c0.055-0.169,0.143-0.545,0.203-0.922c0.014-0.061,0.021-0.118,0.016-0.123c0.074-0.443,0.107-0.9,0.105-1.369
		c-0.004-0.439-0.039-0.87-0.109-1.288c-0.008-0.08-0.02-0.159-0.027-0.163c-0.062-0.396-0.16-0.784-0.287-1.147
		c-0.967-3.01-3.549-5.15-6.562-5.126c-3.83,0.03-6.916,3.543-6.889,7.838c0.031,4.294,3.16,7.756,6.986,7.725
		C231.872,82.666,234.425,80.483,235.419,77.268z M257.938,74.46l11.396-4.832c-1.182-2.038-3.086-2.668-4.719-2.668
		C260.282,66.96,257.31,71.891,257.938,74.46z M305.138,64.023c0-2.973-2.334-5.386-5.805-5.386h-6.24l0,0v10.771h6.533
		C302.694,69.408,305.138,66.996,305.138,64.023z"/>
	<g>
		<linearGradient id="SVGID_2_" gradientUnits="userSpaceOnUse" x1="60.812" y1="24.1367" x2="76.8959" y2="90.1913">
			<stop  offset="0" style="stop-color:#136F8A"/>
			<stop  offset="1" style="stop-color:#90D4D3"/>
		</linearGradient>
		<path fill-rule="evenodd" clip-rule="evenodd" fill="url(#SVGID_2_)" d="M42.157,61.566V31.329c0-1.641,1.432-3.193,2.973-3.193
			c1.375,0,2.047,0.41,2.732,0.764l55.445,30.31c1.191,0.65,1.783,1.506,1.779,2.357c0.004,0.855-0.588,1.707-1.779,2.358
			L47.862,94.236c-0.686,0.354-1.357,0.762-2.732,0.762c-1.541,0-2.973-1.551-2.973-3.191V61.566z"/>
		<linearGradient id="SVGID_3_" gradientUnits="userSpaceOnUse" x1="41.2002" y1="33.5361" x2="85.0335" y2="57.2327">
			<stop  offset="0" style="stop-color:#3CBFBA"/>
			<stop  offset="1" style="stop-color:#DBE797"/>
		</linearGradient>
		<path fill-rule="evenodd" clip-rule="evenodd" fill="url(#SVGID_3_)" d="M78.177,61.765L44.608,28.195
			c0.17-0.039,0.346-0.06,0.521-0.06c1.375,0,2.047,0.41,2.732,0.764l40.85,22.33L78.177,61.765z"/>
		<linearGradient id="SVGID_4_" gradientUnits="userSpaceOnUse" x1="91.6318" y1="73.1143" x2="91.6318" y2="50.2789">
			<stop  offset="0" style="stop-color:#FDC479"/>
			<stop  offset="1" style="stop-color:#F68F64"/>
		</linearGradient>
		<path fill-rule="evenodd" clip-rule="evenodd" fill="url(#SVGID_4_)" d="M88.456,72.045l-10.279-10.28l10.535-10.535l14.596,7.979
			c1.191,0.65,1.783,1.506,1.779,2.357c0.004,0.855-0.588,1.707-1.779,2.358L88.456,72.045z"/>
		<linearGradient id="SVGID_5_" gradientUnits="userSpaceOnUse" x1="49.6895" y1="100.835" x2="84.3118" y2="65.5992">
			<stop  offset="0" style="stop-color:#783A96"/>
			<stop  offset="1" style="stop-color:#EA3039"/>
		</linearGradient>
		<path fill-rule="evenodd" clip-rule="evenodd" fill="url(#SVGID_5_)" d="M44.952,94.99l0.029-0.029l33.195-33.196l10.279,10.28
			L47.862,94.236c-0.686,0.354-1.357,0.762-2.732,0.762C45.071,94.998,45.013,94.996,44.952,94.99z"/>
	</g>
</g>
<text transform="matrix(1 0 0 1 120.9268 39.1201)" fill="#FFFFFF" font-family="'MyriadPro-Regular'" font-size="24.5629">ANDROID APP ON</text>
</svg>
